<svg width="24" height="24" viewBox="0 0 24 24" xmlns="http://www.w3.org/2000/svg">
  <path fill="#C5C5C5" d="M21 5a3 3 0 0 0-6 0c0 1.11.6 2.08 1.5 2.6v1.65c0 .83-.67 1.5-1.5 1.5h-6c-.83 0-1.5-.67-1.5-1.5V7.6A2.99 2.99 0 0 0 9 5a3 3 0 0 0-6 0c0 1.11.6 2.08 1.5 2.6v8.8A2.99 2.99 0 0 0 3 19a3 3 0 0 0 6 0c0-1.11-.6-2.08-1.5-2.6V9.75C8.2 10.5 9.05 11 10 11h6c1.65 0 3-1.35 3-3V7.6A2.99 2.99 0 0 0 21 5zM6 3.5A1.5 1.5 0 1 1 6 6.5 1.5 1.5 0 0 1 6 3.5zm0 17A1.5 1.5 0 1 1 6 17.5a1.5 1.5 0 0 1 0 3zm12-17A1.5 1.5 0 1 1 18 6.5 1.5 1.5 0 0 1 18 3.5z"/>
</svg>
